# xmcd
# 
# Track frame offsets:
#     150
#     34841
#     67513
#     92466
#     125931
#     142259
#     167113
#     201695
# 
# Disc length: 2897
# 
# Revision: 3
# Processed by: cddbd v1.5.2PL0 Copyright (c) Steve Scherf et al.
# Submitted via: fre:ac v1.0.27
# 
DISCID=770b4f08
DTITLE=Wolfgang Muthspiel - Where the river goes
DYEAR=2018
DGENRE=Jazz
TTITLE0=Where the river goes
TTITLE1=For Django
TTITLE2=Descendants
TTITLE3=Clearing
TTITLE4=Buenos Aires
TTITLE5=One day my prince was gone
TTITLE6=Blueshead
TTITLE7=Panorama
EXTD=YEAR: 2018
EXTT0=
EXTT1=
EXTT2=
EXTT3=
EXTT4=
EXTT5=
EXTT6=
EXTT7=
PLAYORDER=
